<?xml version="1.0" encoding="UTF-8" standalone="no"?>
<!-- Created with Inkscape (http://www.inkscape.org/) -->

<svg
   xmlns:dc="http://purl.org/dc/elements/1.1/"
   xmlns:cc="http://creativecommons.org/ns#"
   xmlns:rdf="http://www.w3.org/1999/02/22-rdf-syntax-ns#"
   xmlns:svg="http://www.w3.org/2000/svg"
   xmlns="http://www.w3.org/2000/svg"
   xmlns:sodipodi="http://sodipodi.sourceforge.net/DTD/sodipodi-0.dtd"
   xmlns:inkscape="http://www.inkscape.org/namespaces/inkscape"
   width="298.13751"
   height="286.4675"
   id="svg3263"
   version="1.1"
   inkscape:version="0.48.3.1 r9886"
   sodipodi:docname="Nouveau document 3">
  <defs
     id="defs3265" />
  <sodipodi:namedview
     id="base"
     pagecolor="#ffffff"
     bordercolor="#666666"
     borderopacity="1.0"
     inkscape:pageopacity="0.0"
     inkscape:pageshadow="2"
     inkscape:zoom="0.35"
     inkscape:cx="-313.07413"
     inkscape:cy="71.805177"
     inkscape:document-units="px"
     inkscape:current-layer="layer1"
     showgrid="false"
     fit-margin-top="0"
     fit-margin-left="0"
     fit-margin-right="0"
     fit-margin-bottom="0"
     inkscape:window-width="1680"
     inkscape:window-height="925"
     inkscape:window-x="0"
     inkscape:window-y="30"
     inkscape:window-maximized="1" />
  <metadata
     id="metadata3268">
    <rdf:RDF>
      <cc:Work
         rdf:about="">
        <dc:format>image/svg+xml</dc:format>
        <dc:type
           rdf:resource="http://purl.org/dc/dcmitype/StillImage" />
        <dc:title></dc:title>
      </cc:Work>
    </rdf:RDF>
  </metadata>
  <g
     inkscape:label="Calque 1"
     inkscape:groupmode="layer"
     id="layer1"
     transform="translate(-222.35984,-317.69986)">
    <g
       id="g174"
       transform="matrix(1.25,0,0,-1.25,425.21859,493.27736)"
       style="fill:#cc6a63;fill-opacity:1">
      <path
         d="m 0,0 c -10.335,21.532 -24.115,47.8 -44.355,47.8 -20.241,0 -31.868,-28.852 -42.634,-44.356 -10.766,-15.502 -41.771,-21.962 -41.771,-49.953 0,-31.437 45.217,-42.203 89.141,-42.203 43.924,0 89.788,12.92 85.697,40.911 C 42.092,-20.529 10.335,-21.532 0,0 m 52.968,72.777 c -18.517,0 -28.852,-20.992 -28.852,-45.217 0,-22.367 12.387,-34.451 27.46,-34.451 16.929,0 24.647,16.392 24.647,40.049 0,18.085 -8.775,39.619 -23.255,39.619 M -82.427,53.829 c 18.786,0 28.155,19.743 28.155,47.684 0,26.082 -11.728,38.949 -24.673,38.949 -16.337,0 -29.523,-26.644 -29.523,-46.585 0,-25.511 9.109,-40.048 26.041,-40.048 M -110.179,27.56 c 0,24.225 -10.336,45.217 -28.853,45.217 -14.48,0 -23.255,-21.534 -23.255,-39.619 0,-23.657 7.717,-40.049 24.648,-40.049 15.073,0 27.46,12.084 27.46,34.451 M -4.015,53.829 c 16.931,0 26.041,14.537 26.041,40.048 0,19.941 -13.186,46.585 -29.523,46.585 -12.945,0 -24.674,-12.867 -24.674,-38.949 0,-27.941 9.37,-47.684 28.156,-47.684"
         style="fill:#cc6a63;fill-opacity:1;fill-rule:nonzero;stroke:none"
         id="path176"
         inkscape:connector-curvature="0" />
    </g>
  </g>
</svg>
