<?xml version="1.0" encoding="UTF-8" standalone="no"?>
<!-- Created with Inkscape (http://www.inkscape.org/) -->

<svg
   xmlns:dc="http://purl.org/dc/elements/1.1/"
   xmlns:cc="http://creativecommons.org/ns#"
   xmlns:rdf="http://www.w3.org/1999/02/22-rdf-syntax-ns#"
   xmlns:svg="http://www.w3.org/2000/svg"
   xmlns="http://www.w3.org/2000/svg"
   xmlns:sodipodi="http://sodipodi.sourceforge.net/DTD/sodipodi-0.dtd"
   xmlns:inkscape="http://www.inkscape.org/namespaces/inkscape"
   width="728.73212"
   height="478.7627"
   id="svg3282"
   version="1.1"
   inkscape:version="0.48.3.1 r9886"
   sodipodi:docname="idefix.svg">
  <defs
     id="defs3284" />
  <sodipodi:namedview
     id="base"
     pagecolor="#ffffff"
     bordercolor="#666666"
     borderopacity="1.0"
     inkscape:pageopacity="0.0"
     inkscape:pageshadow="2"
     inkscape:zoom="0.35"
     inkscape:cx="-157.69886"
     inkscape:cy="-165.32621"
     inkscape:document-units="px"
     inkscape:current-layer="layer1"
     showgrid="false"
     inkscape:window-width="1680"
     inkscape:window-height="925"
     inkscape:window-x="0"
     inkscape:window-y="30"
     inkscape:window-maximized="1"
     fit-margin-top="0"
     fit-margin-left="0"
     fit-margin-right="0"
     fit-margin-bottom="0" />
  <metadata
     id="metadata3287">
    <rdf:RDF>
      <cc:Work
         rdf:about="">
        <dc:format>image/svg+xml</dc:format>
        <dc:type
           rdf:resource="http://purl.org/dc/dcmitype/StillImage" />
        <dc:title />
      </cc:Work>
    </rdf:RDF>
  </metadata>
  <g
     inkscape:label="Calque 1"
     inkscape:groupmode="layer"
     id="layer1"
     transform="translate(-11.348219,-310.12369)">
    <g
       id="g50"
       transform="matrix(1.0625351,0,0,-1.1410479,615.48199,345.59809)">
      <path
         d="m 0,0 c -16.825,-51.826 -10.835,-83.803 3.65,-141.555 14.583,-58.131 30.678,-108.156 2.407,-118.251 -28.268,-10.096 -61.075,41.304 -67.305,111.73 C -67.479,-77.648 -37.69,-22.211 0,0"
         style="fill:#606163;fill-opacity:1;fill-rule:nonzero;stroke:none"
         id="path52"
         inkscape:connector-curvature="0" />
    </g>
    <g
       id="g54"
       transform="matrix(1.0625351,0,0,-1.1410479,519.13683,566.09675)">
      <path
         d="m 0,0 c -14.285,-14.285 -23.986,-43.996 -29.633,-63.139 -12.037,-40.815 0.768,-70.698 0.768,-70.698 0,0 27.346,0.228 27.346,-14.492 0,-14.72 -55.732,-17.644 -63.765,-3.181 -8.035,14.459 -14.999,89.444 -14.999,89.444 L 0,0 z"
         style="fill:#d9dadb;fill-opacity:1;fill-rule:nonzero;stroke:none"
         id="path56"
         inkscape:connector-curvature="0" />
    </g>
    <g
       id="g58"
       transform="matrix(1.0625351,0,0,-1.1410479,234.78935,647.39851)">
      <path
         d="m 0,0 c -7.372,-17.898 -57.385,-23.691 -55.807,-44.223 1.578,-20.533 7.371,-21.847 7.371,-21.847 0,0 25.534,2.693 25.534,-12.901 0,-15.592 -51.381,-14.447 -60.807,-1.052 -10.324,14.671 -18.152,49.601 -13.334,66.162 3.246,11.162 6.515,35.474 -0.885,54.502 L 0,0 z"
         style="fill:#d9dadb;fill-opacity:1;fill-rule:nonzero;stroke:none"
         id="path60"
         inkscape:connector-curvature="0" />
    </g>
    <g
       id="g62"
       transform="matrix(1.0625351,0,0,-1.1410479,572.2278,310.12419)">
      <path
         d="m 0,0 c 46.469,0 74.379,-35.864 91.078,-69.859 17.32,-35.259 65.224,-39.179 65.224,-39.179 13.518,-48.109 -56.607,-124.149 -150.387,-61.629 -17.372,-37.623 -105.844,-72.152 -125.373,-138.357 -13.406,-45.452 -4.176,-78.73 -4.176,-78.73 0,0 30.451,0.254 30.451,-16.138 0,-16.392 -62.062,-19.644 -71.007,-3.543 -8.947,16.103 -16.699,99.6 -16.699,99.6 -54.5,-23.43 -162.903,-22.227 -191.808,-8.373 -8.432,-20.476 -65.643,-27.101 -63.835,-50.588 1.805,-23.488 8.43,-24.992 8.43,-24.992 0,0 29.207,3.082 29.207,-14.755 0,-17.839 -58.773,-16.528 -69.557,-1.204 -11.808,16.779 -20.763,56.735 -15.254,75.682 3.715,12.765 7.455,40.58 -1.01,62.346 -11.388,29.281 -1.744,93.349 92.293,86.46 94.036,-6.89 195.653,0.344 238.364,38.922 C -111.347,-105.757 -84.134,0 0,0"
         style="fill:#e7e8e9;fill-opacity:1;fill-rule:nonzero;stroke:none"
         id="path64"
         inkscape:connector-curvature="0" />
    </g>
    <g
       id="g66"
       transform="matrix(1.0625351,0,0,-1.1410479,688.06028,414.17014)">
      <path
         d="m 0,0 c -7.101,5.371 -13.516,12.326 -17.937,21.325 -16.699,33.995 -44.609,69.86 -91.078,69.86 -31.162,0 -54.508,-14.515 -73.735,-34.744 C -188.4,-1.947 -152.518,-95.461 0,0"
         style="fill:#d9c6a9;fill-opacity:1;fill-rule:nonzero;stroke:none"
         id="path68"
         inkscape:connector-curvature="0" />
    </g>
    <g
       id="g70"
       transform="matrix(1.0625351,0,0,-1.1410479,408.53508,474.81958)">
      <path
         d="m 0,0 c -42.711,-38.578 -144.328,-45.813 -238.365,-38.922 -61.033,4.471 -86.509,-20.948 -93.764,-47.348 31.177,18.852 85.362,19.479 177.899,-18.827 C -38.805,-152.877 47.015,-17.588 41.043,55.859 27.257,34.006 14.524,13.119 0,0"
         style="fill:#d9c6a9;fill-opacity:1;fill-rule:nonzero;stroke:none"
         id="path72"
         inkscape:connector-curvature="0" />
    </g>
    <g
       id="g74"
       transform="matrix(1.0625351,0,0,-1.1410479,118.03703,520.41905)">
      <path
         d="m 0,0 c -35.891,-6.906 -65.039,37.96 -70.701,65.878 -6.074,29.944 -0.346,62.026 9.638,78.48 9.982,16.455 -6.408,24.001 -15.966,11.392 -10.284,-13.566 -32.241,-47.598 -19.528,-102.705 11.6,-50.289 29.02,-76.404 51.807,-84.633 L 0,0 z"
         style="fill:#d9c6a9;fill-opacity:1;fill-rule:nonzero;stroke:none"
         id="path76"
         inkscape:connector-curvature="0" />
    </g>
    <g
       id="g78"
       transform="matrix(1.0625351,0,0,-1.1410479,611.66715,395.01532)">
      <path
         d="m 0,0 c 0,-4.596 -3.724,-8.317 -8.317,-8.317 -4.596,0 -8.317,3.721 -8.317,8.317 0,4.594 3.721,8.316 8.317,8.316 C -3.724,8.316 0,4.594 0,0"
         style="fill:#606163;fill-opacity:1;fill-rule:nonzero;stroke:none"
         id="path80"
         inkscape:connector-curvature="0" />
    </g>
    <g
       id="g82"
       transform="matrix(1.0625351,0,0,-1.1410479,656.13169,395.01532)">
      <path
         d="m 0,0 c 0,-4.596 -3.724,-8.317 -8.317,-8.317 -4.593,0 -8.318,3.721 -8.318,8.317 0,4.594 3.725,8.316 8.318,8.316 C -3.724,8.316 0,4.594 0,0"
         style="fill:#606163;fill-opacity:1;fill-rule:nonzero;stroke:none"
         id="path84"
         inkscape:connector-curvature="0" />
    </g>
    <g
       id="g86"
       transform="matrix(1.0625351,0,0,-1.1410479,713.75663,428.52242)">
      <path
         d="m 0,0 c 2.856,-14.619 10.58,-27.486 21.413,-36.869 3.716,10.752 4.453,21.756 1.69,31.594 0,0 -10.318,0.846 -23.103,5.275"
         style="fill:#606163;fill-opacity:1;fill-rule:nonzero;stroke:none"
         id="path88"
         inkscape:connector-curvature="0" />
    </g>
    <g
       id="g90"
       transform="matrix(1.0625351,0,0,-1.1410479,532.44606,345.59809)">
      <path
         d="M 0,0 C -19.448,-59.896 -12.526,-96.854 4.216,-163.596 21.07,-230.779 39.67,-288.592 7,-300.258 -25.669,-311.926 -63.586,-252.524 -70.789,-171.131 -77.988,-89.738 -43.56,-25.668 0,0"
         style="fill:#606163;fill-opacity:1;fill-rule:nonzero;stroke:none"
         id="path92"
         inkscape:connector-curvature="0" />
    </g>
    <g
       transform="matrix(0.86001297,0.3044919,-0.36582741,1.0332502,164.37459,67.050264)"
       style="font-size:4.43773651px;fill:#cc6a63;fill-opacity:0.64563108"
       id="text38">
      <path
         d="m 107.6126,494.9796 -14.926017,0 0,-3.85842 4.949961,0 0,-30.08051 -4.949961,0 0,-3.85842 14.926017,0 0,3.85842 -4.94995,0 0,30.08051 4.94995,0 0,3.85842"
         style="font-size:51.98723221px;font-style:normal;font-variant:normal;font-weight:normal;font-stretch:normal;text-align:start;writing-mode:lr-tb;text-anchor:start;fill:#cc6a63;fill-opacity:0.64563108;fill-rule:nonzero;stroke:none;font-family:Verdana;-inkscape-font-specification:Verdana"
         id="path4199"
         inkscape:connector-curvature="0" />
      <path
         d="m 148.71116,469.23224 c -4e-5,3.43537 -0.75311,6.54919 -2.25921,9.34146 -1.48925,2.79229 -3.4777,4.95842 -5.96534,6.4984 -1.72616,1.06615 -3.65537,1.83614 -5.78764,2.30998 -2.11538,0.47384 -4.90766,0.71076 -8.37685,0.71076 l -9.54453,0 0,-37.79735 9.443,0 c 3.68918,3e-5 6.61684,0.2708 8.783,0.8123 2.18303,0.52464 4.02763,1.25233 5.53379,2.18305 2.57226,1.60772 4.57762,3.74846 6.0161,6.42226 1.43842,2.67384 2.15764,5.84689 2.15768,9.51914 m -5.25457,-0.0761 c -3e-5,-2.96149 -0.51618,-5.45762 -1.54845,-7.4884 -1.03233,-2.03072 -2.57231,-3.62993 -4.61996,-4.79765 -1.48924,-0.84611 -3.07153,-1.42995 -4.74688,-1.75152 -1.67539,-0.33842 -3.68075,-0.50765 -6.0161,-0.50769 l -4.7215,0 0,29.16667 4.7215,0 c 2.41996,0 4.52686,-0.17769 6.32071,-0.53307 1.81073,-0.35538 3.46918,-1.01537 4.97534,-1.97999 1.87842,-1.20152 3.28302,-2.78381 4.21381,-4.74688 0.94765,-1.96304 1.4215,-4.41687 1.42153,-7.36147"
         style="font-size:51.98723221px;font-style:normal;font-variant:normal;font-weight:normal;font-stretch:normal;text-align:start;writing-mode:lr-tb;text-anchor:start;fill:#cc6a63;fill-opacity:0.64563108;fill-rule:nonzero;stroke:none;font-family:Verdana;-inkscape-font-specification:Verdana"
         id="path4201"
         inkscape:connector-curvature="0" />
      <path
         d="m 182.3037,484.70632 -24.90209,0 0,-37.79735 24.90209,0 0,4.46765 -19.87598,0 0,10.35683 19.87598,0 0,4.46765 -19.87598,0 0,14.03757 19.87598,0 0,4.46765"
         style="font-size:51.98723221px;font-style:normal;font-variant:normal;font-weight:normal;font-stretch:normal;text-align:start;writing-mode:lr-tb;text-anchor:start;fill:#cc6a63;fill-opacity:0.64563108;fill-rule:nonzero;stroke:none;font-family:Verdana;-inkscape-font-specification:Verdana"
         id="path4203"
         inkscape:connector-curvature="0" />
      <path
         d="m 214.71229,452.22714 -19.11445,0 0,10.66144 16.4237,0 0,4.46766 -16.4237,0 0,18.2006 -5.02611,0 0,-37.79735 24.14056,0 0,4.46765"
         style="font-size:51.98723221px;font-style:normal;font-variant:normal;font-weight:normal;font-stretch:normal;text-align:start;writing-mode:lr-tb;text-anchor:start;fill:#cc6a63;fill-opacity:0.64563108;fill-rule:nonzero;stroke:none;font-family:Verdana;-inkscape-font-specification:Verdana"
         id="path4205"
         inkscape:connector-curvature="0" />
      <path
         d="m 233.83274,488.41281 -14.92602,0 0,-3.85842 4.94995,0 0,-30.08051 -4.94995,0 0,-3.85842 14.92602,0 0,3.85842 -4.94996,0 0,30.08051 4.94996,0 0,3.85842"
         style="font-size:51.98723221px;font-style:normal;font-variant:normal;font-weight:normal;font-stretch:normal;text-align:start;writing-mode:lr-tb;text-anchor:start;fill:#cc6a63;fill-opacity:0.64563108;fill-rule:nonzero;stroke:none;font-family:Verdana;-inkscape-font-specification:Verdana"
         id="path4207"
         inkscape:connector-curvature="0" />
      <path
         d="m 271.23593,456.70356 -13.04758,18.68291 13.02219,19.11444 -5.81302,0 -10.30606,-15.56063 -10.55991,15.56063 -5.48303,0 13.1745,-18.88598 -12.86989,-18.91137 5.78765,0 10.17914,15.35755 10.4076,-15.35755 5.50841,0"
         style="font-size:51.98723221px;font-style:normal;font-variant:normal;font-weight:normal;font-stretch:normal;text-align:start;writing-mode:lr-tb;text-anchor:start;fill:#cc6a63;fill-opacity:0.64563108;fill-rule:nonzero;stroke:none;font-family:Verdana;-inkscape-font-specification:Verdana"
         id="path4209"
         inkscape:connector-curvature="0" />
    </g>
  </g>
</svg>
